<svg width="103" height="42" viewBox="0 0 103 42" fill="none" xmlns="http://www.w3.org/2000/svg">
<rect x="3.33276" y="16.0345" width="3" height="3" rx="0.5" transform="rotate(-45 3.33276 16.0345)" fill="#FF7383"/>
<rect y="19.3203" width="3" height="3" rx="0.5" transform="rotate(-45 0 19.3203)" fill="#FFC400"/>
<rect x="3.33276" y="22.681" width="3" height="3" rx="0.5" transform="rotate(-45 3.33276 22.681)" fill="#7AD2A6"/>
<rect y="25.9655" width="3" height="3" rx="0.5" transform="rotate(-45 0 25.9655)" fill="white"/>
<path d="M19.7141 19.4536C19.7141 19.8797 19.8721 20.189 20.1883 20.3814C20.5044 20.6151 21.178 20.8557 22.2089 21.1031C23.2948 21.3643 24.0852 21.7216 24.58 22.1753C25.0886 22.6289 25.3429 23.2818 25.3429 24.134C25.3429 25.0275 25.0062 25.7491 24.3326 26.299C23.6728 26.8488 22.8068 27.1237 21.7347 27.1237C20.1814 27.1237 18.7794 26.5739 17.5285 25.4742L18.6007 24.1959C19.6453 25.0893 20.7037 25.5361 21.7759 25.5361C22.312 25.5361 22.745 25.4192 23.0749 25.1856C23.4048 24.9381 23.5697 24.622 23.5697 24.2371C23.5697 23.8522 23.4185 23.5498 23.1161 23.3299C22.8275 23.11 22.3051 22.9107 21.5491 22.732C20.2433 22.4296 19.3361 22.0722 18.8275 21.6598C18.2364 21.2062 17.9409 20.512 17.9409 19.5773C17.9409 18.6701 18.2708 17.9622 18.9306 17.4536C19.5903 16.9313 20.4357 16.6701 21.4666 16.6701C22.855 16.6701 24.044 17.0756 25.0336 17.8866L24.1264 19.1649C23.824 18.89 23.4185 18.6701 22.9099 18.5052C22.4013 18.3265 21.8996 18.2371 21.4048 18.2371C20.8962 18.2371 20.4838 18.3471 20.1677 18.567C19.8653 18.7732 19.7141 19.0687 19.7141 19.4536ZM34.8775 24.7113L33.8672 27H32.0527L36.5063 16.9175H38.3208L42.7538 27H40.9393L39.929 24.7113H34.8775ZM39.2486 23.1237L37.4136 18.9794L35.5785 23.1237H39.2486ZM53.9724 18.4639V27H52.261V18.4639H49.2095V16.9175H57.0239V18.4639H53.9724ZM69.5482 18.2165C68.5447 18.2165 67.6994 18.5739 67.0121 19.2887C66.3248 20.0034 65.9812 20.8694 65.9812 21.8866C65.9812 22.9038 66.3248 23.7698 67.0121 24.4845C67.6994 25.1856 68.5447 25.5361 69.5482 25.5361C70.5516 25.5361 71.397 25.1856 72.0843 24.4845C72.7716 23.7698 73.1152 22.9038 73.1152 21.8866C73.1152 20.8694 72.7716 20.0034 72.0843 19.2887C71.397 18.5739 70.5516 18.2165 69.5482 18.2165ZM69.5482 27.1031C68.0362 27.1031 66.7716 26.6082 65.7544 25.6186C64.7372 24.6151 64.2286 23.3711 64.2286 21.8866C64.2286 20.4021 64.7372 19.1649 65.7544 18.1753C66.7716 17.1718 68.0362 16.6701 69.5482 16.6701C71.0602 16.6701 72.3248 17.1718 73.342 18.1753C74.3592 19.1649 74.8678 20.4021 74.8678 21.8866C74.8678 23.3711 74.3523 24.6082 73.3214 25.5979C72.2905 26.6014 71.0327 27.1031 69.5482 27.1031ZM88.8936 23.3299L91.5328 27H89.3678L86.9554 23.5979H84.7286V27H83.0173V16.9175H86.7699C88.2956 16.9175 89.3884 17.1787 90.0482 17.701C90.7218 18.2096 91.0585 19.0412 91.0585 20.1959C91.0585 21.8591 90.3369 22.9038 88.8936 23.3299ZM86.8317 22.0722C87.7802 22.0722 88.4331 21.9278 88.7905 21.6392C89.1479 21.3505 89.3266 20.8625 89.3266 20.1753C89.3266 19.5155 89.1479 19.0687 88.7905 18.8351C88.4331 18.5876 87.7939 18.4639 86.873 18.4639H84.7286V22.0722H86.8317ZM99.5251 16.9175H101.236V27H99.5251V16.9175Z" fill="white"/>
</svg>
